<?xml version="1.0" encoding="UTF-8"?>
<svg version="1.1" xmlns="http://www.w3.org/2000/svg" width="527" height="503">
<path d="M0 0 C5.47032464 5.4217388 10.59753244 10.99145647 15.36889648 17.0480957 C17.62654164 19.892894 19.99801478 22.61652214 22.37670898 25.3605957 C59.88704224 70.46575687 77.49026186 133.83974132 73.00561523 191.87231445 C71.40075582 208.7568464 68.17588532 225.441535 63.50170898 241.7355957 C63.27708984 242.53787598 63.0524707 243.34015625 62.82104492 244.16674805 C56.20116348 267.31791897 44.89257437 289.77949429 31.50170898 309.7355957 C30.83010742 310.73848633 30.15850586 311.74137695 29.46655273 312.7746582 C15.76958666 332.29353799 -1.73460027 351.09838102 -20.49829102 365.7355957 C-21.19325684 366.28521973 -21.88822266 366.83484375 -22.60424805 367.40112305 C-60.30667229 397.09807387 -103.50277168 413.87129827 -150.49829102 421.7355957 C-151.84205064 421.97512505 -153.18580248 422.21469807 -154.52954102 422.4543457 C-219.17990483 432.72589883 -292.61551577 414.63917978 -345.51196289 376.27514648 C-363.71306896 362.86666408 -381.3184387 348.25402448 -395.36547852 330.4230957 C-397.62312367 327.57829741 -399.99459681 324.85466927 -402.37329102 322.1105957 C-439.88362427 277.00543454 -457.4868439 213.63145009 -453.00219727 155.59887695 C-451.39733785 138.71434501 -448.17246735 122.02965641 -443.49829102 105.7355957 C-443.27367187 104.93331543 -443.04905273 104.13103516 -442.81762695 103.30444336 C-436.19774551 80.15327243 -424.8891564 57.69169712 -411.49829102 37.7355957 C-410.82668945 36.73270508 -410.15508789 35.72981445 -409.46313477 34.6965332 C-395.76616869 15.17765342 -378.26198176 -3.62718961 -359.49829102 -18.2644043 C-358.45584229 -19.08884033 -358.45584229 -19.08884033 -357.39233398 -19.92993164 C-319.74349818 -49.58467262 -276.46992062 -66.51005972 -229.49829102 -74.2644043 C-228.72727051 -74.39331055 -227.95625 -74.5222168 -227.16186523 -74.6550293 C-145.28930446 -88.01224242 -58.79009927 -57.30332716 0 0 Z M-259.49829102 -51.2644043 C-260.30733887 -51.06089355 -261.11638672 -50.85738281 -261.94995117 -50.64770508 C-273.45388233 -47.71552855 -284.18532472 -43.26772505 -294.99389648 -38.39331055 C-297.2928112 -37.35702846 -299.59955604 -36.34069211 -301.90844727 -35.3269043 C-318.60050414 -27.87210482 -333.92550282 -18.45183132 -347.87133789 -6.63549805 C-350.31734958 -4.57415326 -352.81850651 -2.58187061 -355.31079102 -0.5769043 C-362.46699714 5.31393997 -369.51684226 11.23394193 -375.48266602 18.35668945 C-377.06409515 20.22314361 -378.67361669 22.03152739 -380.32641602 23.83325195 C-399.36389815 44.80505515 -413.86525372 70.12650819 -423.49829102 96.7355957 C-423.75803711 97.45038086 -424.0177832 98.16516602 -424.28540039 98.90161133 C-432.66385177 122.46471287 -436.94906163 147.7463246 -436.81079102 172.7355957 C-436.80863586 173.44659424 -436.80648071 174.15759277 -436.80426025 174.89013672 C-436.54516297 228.65656757 -417.18017257 281.35145069 -381.49829102 321.7355957 C-380.8834082 322.44973633 -380.26852539 323.16387695 -379.63500977 323.8996582 C-377.94226129 325.86308484 -376.22327038 327.80042978 -374.49829102 329.7355957 C-373.67844727 330.67145508 -372.85860352 331.60731445 -372.01391602 332.5715332 C-366.48532937 338.81194651 -360.78328512 344.33920589 -354.15649414 349.43969727 C-352.27159403 350.91276113 -350.42516328 352.42836251 -348.57641602 353.9465332 C-319.09140368 377.88718328 -284.23574897 392.98478111 -247.49829102 401.7355957 C-246.28270508 402.04239258 -245.06711914 402.34918945 -243.81469727 402.6652832 C-203.23692411 412.30064182 -160.49773814 409.04768658 -120.49829102 398.7355957 C-119.68924316 398.53208496 -118.88019531 398.32857422 -118.04663086 398.11889648 C-106.5426997 395.18671996 -95.81125731 390.73891646 -85.00268555 385.86450195 C-82.70377084 384.82821987 -80.39702599 383.81188351 -78.08813477 382.7980957 C-61.39607789 375.34329623 -46.07107921 365.92302272 -32.12524414 354.10668945 C-29.67923245 352.04534466 -27.17807552 350.05306201 -24.68579102 348.0480957 C-17.52958489 342.15725143 -10.47973977 336.23724947 -4.51391602 329.11450195 C-2.93248688 327.2480478 -1.32296534 325.43966402 0.32983398 323.63793945 C19.36731612 302.66613625 33.86867169 277.34468322 43.50170898 250.7355957 C43.76145508 250.02081055 44.02120117 249.30602539 44.28881836 248.56958008 C52.66726974 225.00647854 56.9524796 199.72486681 56.81420898 174.7355957 C56.81205383 174.02459717 56.80989868 173.31359863 56.80767822 172.58105469 C56.54858094 118.81462384 37.18359054 66.11974072 1.50170898 25.7355957 C0.88682617 25.02145508 0.27194336 24.30731445 -0.36157227 23.5715332 C-2.05432074 21.60810657 -3.77331166 19.67076162 -5.49829102 17.7355957 C-6.31813477 16.79973633 -7.13797852 15.86387695 -7.98266602 14.8996582 C-13.51125266 8.6592449 -19.21329691 3.13198552 -25.84008789 -1.96850586 C-27.724988 -3.44156973 -29.57141875 -4.9571711 -31.42016602 -6.4753418 C-60.90517835 -30.41599188 -95.76083306 -45.5135897 -132.49829102 -54.2644043 C-133.71387695 -54.57120117 -134.92946289 -54.87799805 -136.18188477 -55.1940918 C-176.75965792 -64.82945042 -219.49884389 -61.57649517 -259.49829102 -51.2644043 Z " fill="#EC1C24" transform="translate(453.498291015625,77.264404296875)"/>
<path d="M0 0 C1.09103027 0.23025879 2.18206055 0.46051758 3.30615234 0.69775391 C23.30102819 5.02779892 41.52980434 11.25823803 60 20 C60.72928711 20.34466309 61.45857422 20.68932617 62.20996094 21.04443359 C89.57866651 34.09082121 115.22066702 52.55071301 135.0078125 75.6796875 C136.45972729 77.3707412 137.93734835 79.03982373 139.4296875 80.6953125 C166.73303892 111.36303403 182.13616917 150.00269956 189 190 C189.18836426 191.06677979 189.37672852 192.13355957 189.57080078 193.23266602 C191.13873134 202.94500801 191.39815437 212.5001922 191.375 222.3125 C191.37478851 223.14360291 191.37457703 223.97470581 191.37435913 224.83099365 C191.33804686 239.19653998 190.12277091 252.94626664 187 267 C186.80744629 267.89299805 186.61489258 268.78599609 186.41650391 269.70605469 C178.05401767 307.78086669 160.13525762 342.16787313 134 371 C132.95307554 372.17052868 131.90619967 373.34110082 130.859375 374.51171875 C114.97316917 392.1419647 95.70624321 407.49729703 74.8125 418.8125 C73.87051758 419.32312988 72.92853516 419.83375977 71.95800781 420.35986328 C47.7151777 433.27468005 22.85022796 441.5400053 -4 447 C-4.86947266 447.18224121 -5.73894531 447.36448242 -6.63476562 447.55224609 C-34.84908483 453.21879102 -66.96839715 451.93751057 -95 446 C-96.09103027 445.76974121 -97.18206055 445.53948242 -98.30615234 445.30224609 C-118.30102819 440.97220108 -136.52980434 434.74176197 -155 426 C-155.72928711 425.65533691 -156.45857422 425.31067383 -157.20996094 424.95556641 C-184.57866651 411.90917879 -210.22066702 393.44928699 -230.0078125 370.3203125 C-231.45972729 368.6292588 -232.93734835 366.96017627 -234.4296875 365.3046875 C-261.73303892 334.63696597 -277.13616917 295.99730044 -284 256 C-284.28254639 254.39983032 -284.28254639 254.39983032 -284.57080078 252.76733398 C-286.13873134 243.05499199 -286.39815437 233.4998078 -286.375 223.6875 C-286.37478851 222.85639709 -286.37457703 222.02529419 -286.37435913 221.16900635 C-286.33804686 206.80346002 -285.12277091 193.05373336 -282 179 C-281.71116943 177.66050293 -281.71116943 177.66050293 -281.41650391 176.29394531 C-273.05401767 138.21913331 -255.13525762 103.83212687 -229 75 C-227.95307554 73.82947132 -226.90619967 72.65889918 -225.859375 71.48828125 C-209.97316917 53.8580353 -190.70624321 38.50270297 -169.8125 27.1875 C-168.39952637 26.42155518 -168.39952637 26.42155518 -166.95800781 25.64013672 C-142.7151777 12.72531995 -117.85022796 4.4599947 -91 -1 C-89.69579102 -1.27336182 -89.69579102 -1.27336182 -88.36523438 -1.55224609 C-60.15091517 -7.21879102 -28.03160285 -5.93751057 0 0 Z M-113 9 C-113.73025391 9.20318848 -114.46050781 9.40637695 -115.21289062 9.61572266 C-158.74748974 21.97637325 -201.36060079 47.49438731 -229.7265625 83.17578125 C-231.24365763 85.06042005 -232.80176398 86.91275736 -234.3984375 88.73046875 C-249.15171748 105.60133308 -262.59033758 128.42176994 -269 150 C-268.67 150.99 -268.34 151.98 -268 153 C-267.25162711 152.98906799 -266.50325422 152.97813598 -265.73220336 152.96687269 C-215.6639697 152.23882911 -165.5963173 151.72896247 -115.52432806 151.34759387 C-104.6692635 151.26470519 -93.81423141 151.17779775 -82.959198 151.09094238 C-78.87534543 151.05831667 -74.79149262 151.02572195 -70.70763969 150.99314117 C-69.18026387 150.98095553 -69.18026387 150.98095553 -67.62203196 150.96852371 C-56.20831357 150.87753008 -44.79458782 150.78747695 -33.38085938 150.69775391 C-32.34497161 150.68960987 -31.30908384 150.68146584 -30.24180554 150.67307502 C-13.25916554 150.53964027 3.72349117 150.40842223 20.70615147 150.27760106 C38.29044123 150.14205214 55.87469959 150.0028358 73.45893586 149.86051702 C84.23906192 149.77340968 95.01920305 149.68934748 105.79938371 149.60927665 C113.13404209 149.55455396 120.46866798 149.49639271 127.80327754 149.43547881 C132.02911047 149.40049509 136.25494077 149.36709689 140.48081779 149.33787346 C144.3442787 149.31112702 148.20767803 149.27998859 152.07107569 149.24531502 C153.46930427 149.23355147 154.8675477 149.22342055 156.26580082 149.21506888 C158.1626955 149.20350583 160.05954747 149.18547308 161.95638847 149.16710663 C163.53750587 149.15481939 163.53750587 149.15481939 165.15056503 149.14228392 C167.86681759 149.00665034 170.35384457 148.61040217 173 148 C163.62972267 123.12257358 150.41624992 100.45394265 132.58300781 80.75048828 C131.09300709 79.10284714 129.61908152 77.44225294 128.1484375 75.77734375 C90.92544707 33.96393978 39.11133424 10.48764752 -15.58886719 2.35839844 C-17.54627168 2.06744362 -19.50031022 1.75390839 -21.453125 1.43359375 C-51.7989176 -2.27607913 -83.61938461 0.75515267 -113 9 Z M111.70505762 153.25362897 C107.39368139 153.29139439 103.08229226 153.3276332 98.77090454 153.36405945 C91.32649577 153.42713622 83.88209485 153.49107772 76.43769836 153.55558777 C65.6161964 153.64931979 54.794679 153.7411671 43.97315663 153.83250958 C26.32877726 153.98144976 8.68440468 154.13117699 -8.95996094 154.28173828 C-10.01143368 154.29071013 -11.06290641 154.29968197 -12.14624196 154.30892569 C-23.84127177 154.40873959 -35.5362992 154.50882724 -47.23132324 154.60931396 C-48.27920416 154.61831741 -49.32708507 154.62732085 -50.40671995 154.63659713 C-51.45348267 154.64559131 -52.5002454 154.65458548 -53.5787282 154.66385221 C-55.68952973 154.68198899 -57.80033127 154.70012549 -59.91113281 154.71826172 C-61.4754512 154.7317032 -61.4754512 154.7317032 -63.07137197 154.74541622 C-80.63070116 154.89624775 -98.19004521 155.04526711 -115.74940157 155.19290113 C-125.55514984 155.27540983 -135.36088921 155.35877726 -145.16661072 155.44441223 C-187.11213875 155.81041351 -229.05247794 156.12022931 -271 156 C-271.64362888 158.06330276 -272.28494362 160.12732747 -272.92529297 162.19165039 C-273.28267548 163.34097549 -273.64005798 164.4903006 -274.00827026 165.67445374 C-275.26645338 169.89349247 -276.2587439 174.12351658 -277.125 178.4375 C-277.37310425 179.65904785 -277.37310425 179.65904785 -277.6262207 180.90527344 C-286.62838569 226.04489106 -280.33740499 270.99067221 -262 313 C-261.01 312.01 -261.01 312.01 -260 311 C-257.38529402 310.68878084 -257.38529402 310.68878084 -254.02280521 310.60283756 C-252.13610439 310.54848637 -252.13610439 310.54848637 -250.21128839 310.49303716 C-248.82104775 310.4633318 -247.4307988 310.43401282 -246.0405426 310.40504456 C-244.59050769 310.36818892 -243.14048777 310.33073941 -241.69048268 310.29272896 C-226.37051543 309.90702933 -211.04662211 309.71416853 -195.72300088 309.54576242 C-191.59512757 309.49968259 -187.46729857 309.44988582 -183.33946228 309.40061951 C-175.29759184 309.30521124 -167.25568688 309.21312277 -159.21376353 309.12229555 C-152.6555168 309.04815461 -146.09728615 308.9727131 -139.53906441 308.89639473 C-138.59669507 308.88542877 -137.65432574 308.87446282 -136.68339976 308.86316456 C-134.76731618 308.84086144 -132.85123264 308.81855496 -130.93514914 308.79624517 C-113.05585217 308.5882068 -95.17651378 308.38393207 -77.29715777 308.18103994 C-62.06973562 308.00816088 -46.842351 307.83225429 -31.61499023 307.65405273 C-13.81205483 307.44571235 3.99089997 307.23917271 21.79388899 307.03546149 C23.70653532 307.01357242 25.61918163 306.99168176 27.53182793 306.96978951 C28.472157 306.95902805 29.41248608 306.9482666 30.38130997 306.93717904 C36.89788021 306.8624892 43.4144357 306.78659187 49.9309864 306.71021843 C88.2882032 306.26133274 126.63933027 305.83283415 165 306 C165 306.99 165 307.98 165 309 C145.41674686 309.27669847 125.83340346 309.54667613 106.25 309.8125 C105.07936713 309.82839125 105.07936713 309.82839125 103.88508511 309.84460354 C32.58299835 310.81168763 -38.72061542 311.64815812 -110.02448416 312.47087568 C-117.45251762 312.55658309 -124.88054991 312.64238919 -132.30857849 312.72851944 C-133.04439486 312.73705132 -133.78021123 312.7455832 -134.53832506 312.75437363 C-135.27312346 312.76289391 -136.00792186 312.7714142 -136.76498687 312.78019267 C-151.09026721 312.94629994 -165.41555572 313.11166968 -179.74086177 313.2755459 C-181.09877006 313.29108016 -182.45667835 313.30661462 -183.81458664 313.32214928 C-184.81441091 313.33358623 -184.81441091 313.33358623 -185.83443365 313.34525424 C-190.46497057 313.39826199 -195.09550229 313.45170897 -199.72603226 313.5053196 C-205.90608246 313.5768303 -212.08614241 313.64743134 -218.26621103 313.71733129 C-220.50909483 313.74283996 -222.75197521 313.76865159 -224.99485159 313.79480422 C-236.99724087 313.93453747 -248.99670525 314.03835464 -261 314 C-253.40465419 329.78414204 -245.32179201 344.91991837 -233.609375 358.05859375 C-231.1747473 360.80301689 -228.89587897 363.61996188 -226.625 366.5 C-217.8029413 377.2807751 -207.79682333 386.35647682 -196.68798828 394.70898438 C-195.08701911 395.93344561 -193.52451849 397.20773004 -191.96484375 398.484375 C-177.03513349 410.58225634 -159.54485081 419.33517557 -142 427 C-141.27280762 427.31807617 -140.54561523 427.63615234 -139.79638672 427.96386719 C-120.46240499 436.2703186 -100.15460654 440.55881831 -79.41113281 443.64160156 C-77.45372832 443.93255638 -75.49968978 444.24609161 -73.546875 444.56640625 C-43.2010824 448.27607913 -11.38061539 445.24484733 18 437 C18.73025391 436.79681152 19.46050781 436.59362305 20.21289062 436.38427734 C63.74748974 424.02362675 106.36060079 398.50561269 134.7265625 362.82421875 C136.24365763 360.93957995 137.80176398 359.08724264 139.3984375 357.26953125 C163.40305105 329.81946055 177.53374165 293.50310999 184 258 C184.21527344 256.84628906 184.43054688 255.69257813 184.65234375 254.50390625 C190.23671363 220.54930688 185.85587689 185.45404951 175 153 C153.900022 152.9578196 132.80410415 153.06735758 111.70505762 153.25362897 Z " fill="#EC1B24" transform="translate(311,29)"/>
</svg>
